<?xml version="1.0" encoding="utf-8"?>
<!-- Generator: Adobe Illustrator 23.0.5, SVG Export Plug-In . SVG Version: 6.00 Build 0)  -->
<svg version="1.1" id="Layer_1" xmlns="http://www.w3.org/2000/svg" xmlns:xlink="http://www.w3.org/1999/xlink" x="0px" y="0px"
	 viewBox="0 0 40 40" style="enable-background:new 0 0 40 40;" xml:space="preserve">
<g>
	<g>
		<path d="M30.2,37.36c-0.41,0.83-1.06,1.29-1.98,1.19c-0.94-0.1-1.48-0.69-1.68-1.53c-0.4,0-0.78,0.05-1.14-0.01
			c-0.87-0.14-1.54-0.89-1.52-1.77c0.01-0.63-0.01-1.16-0.72-1.45c-0.28-0.11-0.44-0.48-0.68-0.71c-0.1-0.1-0.26-0.22-0.39-0.21
			c-1.2,0.05-2.4,0.13-3.6,0.2c-0.35,0.02-0.59,0.15-0.77,0.46c-0.28,0.47-0.61,0.91-0.91,1.37c-0.38,0.58-0.93,0.86-1.59,0.87
			c-1.74,0.02-3.48,0.04-5.22,0c-1.1-0.03-1.88-0.61-2.33-1.61c-0.05-0.11-0.09-0.22-0.14-0.35c-1.23,0-2.46,0-3.68,0
			c-0.22,0-0.46-0.01-0.67-0.06c-1.03-0.27-1.61-1.31-1.33-2.34c0.03-0.1,0.06-0.2,0.1-0.32c-0.88-0.45-1.34-1.15-1.17-2.15
			c0.15-0.87,0.74-1.35,1.6-1.54c-0.04-0.15-0.08-0.29-0.1-0.42c-0.19-1.18,0.62-2.22,1.83-2.22c0.65,0,1.05-0.13,1.41-0.73
			c0.42-0.69,1.17-1.02,1.97-1.18c0.16-0.03,0.33-0.05,0.53-0.08c-0.04-0.92-0.14-1.84-0.11-2.75c0.03-1.01-0.38-1.68-1.28-2.1
			C5.41,17.37,5,16.39,5.08,15.07c0.08-1.32,0.02-2.64,0.02-3.97c0-1.52,0.53-2.3,1.97-2.88c0-0.59,0-1.2,0-1.8
			c0-0.64,0-1.29,0-1.93c0-1.49,1.2-2.35,2.62-1.88c0.03,0.01,0.07,0.01,0.12,0.02c0.4-0.81,1.04-1.28,1.96-1.19
			c0.95,0.09,1.5,0.7,1.7,1.53c0.41,0,0.79-0.05,1.16,0.01c0.87,0.14,1.49,0.9,1.52,1.78c0,0.02,0,0.05,0,0.07
			c-0.06,0.57-0.02,1.03,0.63,1.3c0.31,0.13,0.53,0.5,0.75,0.79c0.12,0.15,0.22,0.21,0.41,0.2c1.2-0.08,2.4-0.15,3.6-0.21
			c0.33-0.02,0.57-0.14,0.75-0.45c0.27-0.47,0.61-0.91,0.91-1.37c0.38-0.59,0.94-0.88,1.62-0.89c1.73-0.02,3.45-0.03,5.18,0.01
			c1.12,0.02,1.92,0.6,2.35,1.63c0.12,0.28,0.25,0.34,0.52,0.33c1.06-0.01,2.12,0.05,3.18-0.02c1.56-0.1,2.62,1.26,2.03,2.74
			c0.91,0.46,1.36,1.19,1.16,2.23c-0.14,0.72-0.67,1.2-1.58,1.46c0.03,0.14,0.07,0.29,0.1,0.44c0.18,1.17-0.62,2.2-1.81,2.2
			c-0.66,0-1.08,0.12-1.44,0.74c-0.44,0.74-1.23,1.04-2.46,1.25C32.01,17.31,32,17.4,32,17.49c0.07,1.16,0.13,2.33,0.23,3.49
			c0.01,0.18,0.16,0.39,0.31,0.51c0.46,0.34,0.93,0.66,1.42,0.96c0.62,0.39,0.93,0.95,0.94,1.67c0.02,1.73,0.03,3.45-0.01,5.18
			c-0.03,1.15-0.63,1.95-1.7,2.36c-0.21,0.08-0.25,0.19-0.25,0.39c0.01,1.11-0.05,2.22,0.02,3.32
			C33.04,36.76,31.83,37.97,30.2,37.36z M31.26,6.18c-0.33-0.55-0.75-0.83-1.31-0.84c-1.69-0.01-3.38,0-5.07,0
			c-0.33,0-0.59,0.13-0.77,0.42c-0.36,0.56-0.72,1.13-1.12,1.65c-0.17,0.22-0.44,0.43-0.7,0.49c-0.55,0.13-1.13,0.19-1.69,0.23
			c-0.83,0.06-1.66,0.08-2.49,0.12c0,1.78,0,3.52,0,5.31c0.18,0,0.33-0.01,0.48,0c1.21,0.09,2.42,0.18,3.63,0.29
			c0.41,0.04,0.73,0.25,0.97,0.6c0.3,0.43,0.61,0.86,0.97,1.24c0.17,0.18,0.45,0.36,0.69,0.36c2.42,0.03,4.84,0.03,7.25,0.01
			c0.59-0.01,1.1-0.29,1.55-0.8c-0.91,0-1.73,0-2.56,0c-0.42,0-0.68-0.23-0.68-0.57c0-0.35,0.25-0.55,0.68-0.55
			c0.81,0,1.62,0,2.43,0c0.77,0,1.55,0.01,2.32,0c0.46-0.01,0.79-0.33,0.8-0.75c0.01-0.41-0.31-0.74-0.77-0.78
			c-0.11-0.01-0.21-0.01-0.32-0.01c-1.48,0-2.95,0-4.43,0c-0.46,0-0.71-0.21-0.71-0.56c0.01-0.36,0.26-0.55,0.72-0.55
			c0.67,0,1.33,0,2,0c1.37,0,2.74,0,4.11,0c0.35,0,0.64-0.1,0.81-0.42c0.29-0.54-0.11-1.12-0.78-1.12c-2.01,0-4.03,0-6.04,0
			c-0.11,0-0.22,0.01-0.32-0.01c-0.3-0.04-0.48-0.22-0.49-0.52c-0.02-0.3,0.13-0.5,0.43-0.57c0.13-0.03,0.26-0.03,0.39-0.03
			c1.7,0,3.41,0,5.11,0c0.5,0,0.82-0.38,0.75-0.86c-0.06-0.41-0.39-0.64-0.93-0.64c-2.35,0-4.69,0-7.04,0
			c-0.46,0-0.71-0.21-0.7-0.57c0.01-0.35,0.25-0.54,0.69-0.55C29.79,6.18,30.48,6.18,31.26,6.18z M8.74,33.81
			c0.33,0.55,0.74,0.83,1.31,0.84c1.69,0.01,3.38,0,5.07,0c0.33,0,0.59-0.13,0.78-0.42c0.36-0.55,0.74-1.08,1.09-1.64
			c0.19-0.3,0.44-0.49,0.8-0.54c0.54-0.07,1.08-0.16,1.63-0.2c0.83-0.06,1.66-0.08,2.48-0.12c0-1.78,0-3.54,0-5.31
			c-0.38,0-0.73,0.02-1.07,0c-1.01-0.08-2.01-0.18-3.02-0.28c-0.41-0.04-0.73-0.24-0.97-0.59c-0.3-0.43-0.61-0.86-0.97-1.24
			c-0.17-0.18-0.45-0.36-0.69-0.37c-2.42-0.03-4.84-0.03-7.25-0.01c-0.59,0.01-1.1,0.29-1.56,0.79c0.45,0,0.82,0,1.19,0
			c0.49,0,0.98-0.01,1.46,0.01c0.36,0.01,0.59,0.27,0.57,0.6c-0.02,0.31-0.25,0.51-0.6,0.53c-0.1,0-0.19,0-0.29,0
			c-1.48,0-2.95,0-4.43,0c-0.54,0-0.9,0.3-0.91,0.75c-0.01,0.46,0.35,0.78,0.91,0.79c0.75,0.01,1.5,0,2.25,0
			c0.83,0,1.67-0.01,2.5,0.01c0.35,0,0.57,0.24,0.57,0.56c0,0.32-0.23,0.53-0.58,0.55c-0.09,0.01-0.19,0-0.29,0
			c-1.98,0-3.95-0.01-5.93,0.01c-0.22,0-0.48,0.07-0.66,0.19c-0.28,0.19-0.35,0.5-0.23,0.83c0.12,0.33,0.4,0.51,0.82,0.51
			c2.01,0,4.03,0,6.04,0c0.12,0,0.24-0.01,0.36,0.01c0.28,0.05,0.44,0.23,0.46,0.51c0.02,0.28-0.11,0.49-0.39,0.57
			c-0.13,0.04-0.28,0.04-0.42,0.04c-1.7,0-3.41,0-5.11,0c-0.42,0-0.72,0.26-0.76,0.65c-0.04,0.42,0.23,0.77,0.65,0.84
			c0.13,0.02,0.26,0.02,0.39,0.02c2.31,0,4.62,0,6.93,0c0.46,0,0.71,0.21,0.71,0.57c0,0.35-0.24,0.54-0.69,0.55
			C10.21,33.82,9.52,33.81,8.74,33.81z M16.14,7.03c0,0.23,0,0.36,0,0.48c0,0.73,0.01,1.45,0,2.18c0,0.37-0.24,0.6-0.57,0.6
			c-0.32,0-0.53-0.23-0.56-0.58c-0.01-0.11,0-0.21,0-0.32c0-1.51,0-3.02,0-4.54c0-0.46-0.32-0.78-0.75-0.79
			c-0.43,0-0.75,0.32-0.77,0.77c0,0.1,0,0.19,0,0.29c0,1.43,0,2.86,0,4.29c0,0.06,0,0.12,0,0.18c-0.01,0.46-0.21,0.71-0.58,0.7
			c-0.35-0.01-0.55-0.24-0.55-0.69c0-2,0-4,0-6c0-0.12,0.01-0.24-0.01-0.36c-0.04-0.39-0.36-0.68-0.75-0.68
			c-0.4,0-0.72,0.29-0.76,0.7c-0.01,0.11-0.01,0.21-0.01,0.32c0,1.97,0,3.93,0,5.9c0,0.14,0,0.29-0.04,0.42
			c-0.08,0.27-0.29,0.41-0.57,0.39c-0.29-0.02-0.46-0.19-0.51-0.47C9.69,9.71,9.7,9.6,9.7,9.5c0-1.7,0-3.41,0-5.11
			c0-0.47-0.3-0.79-0.73-0.79c-0.42,0-0.75,0.32-0.77,0.77c0,0.1,0,0.19,0,0.29c0,2.26,0,4.53,0,6.79c0,0.11,0.01,0.22-0.01,0.32
			c-0.04,0.32-0.28,0.53-0.58,0.52c-0.3-0.01-0.54-0.22-0.55-0.55c-0.01-0.57-0.01-1.14-0.01-1.71c0-0.17,0-0.34,0-0.57
			c-0.58,0.32-0.83,0.77-0.84,1.34c-0.01,1.67-0.01,3.33,0,5c0,0.36,0.15,0.63,0.46,0.83c0.52,0.33,1.02,0.7,1.55,1.02
			c0.37,0.22,0.57,0.54,0.61,0.95c0.09,0.92,0.16,1.85,0.23,2.77c0.04,0.47,0.05,0.94,0.07,1.4c1.78,0,3.53,0,5.29,0
			c0-0.3-0.02-0.58,0-0.85c0.08-1.09,0.16-2.18,0.26-3.27c0.04-0.48,0.24-0.88,0.67-1.16c0.4-0.26,0.75-0.59,1.14-0.86
			c0.31-0.22,0.43-0.51,0.43-0.88c-0.01-1.32,0-2.64,0-3.97c0-1,0-2,0-3C16.95,8.11,16.68,7.57,16.14,7.03z M23.86,32.97
			c0-0.25,0-0.39,0-0.53c0-0.71-0.01-1.43,0-2.14c0-0.35,0.23-0.57,0.55-0.58c0.32-0.01,0.55,0.21,0.58,0.56
			c0.01,0.09,0,0.19,0,0.29c0,1.48,0,2.95,0,4.43c0,0.14,0,0.29,0.04,0.42c0.1,0.35,0.48,0.58,0.84,0.52
			c0.38-0.06,0.64-0.36,0.64-0.78c0.01-1.57,0-3.14,0-4.72c0-0.47,0.2-0.71,0.56-0.72c0.37-0.01,0.57,0.24,0.57,0.7
			c0,1.99,0,3.98,0,5.97c0,0.11,0,0.21,0,0.32c0.03,0.43,0.35,0.74,0.77,0.74c0.4,0,0.71-0.3,0.75-0.71
			c0.01-0.12,0.01-0.24,0.01-0.36c0-1.95,0-3.91,0-5.86c0-0.14,0-0.29,0.05-0.42c0.09-0.27,0.3-0.4,0.58-0.37
			c0.27,0.02,0.43,0.19,0.49,0.45c0.02,0.11,0.01,0.24,0.01,0.36c0,1.68,0,3.36,0,5.04c0,0.15,0.02,0.31,0.08,0.45
			c0.14,0.3,0.48,0.45,0.81,0.38c0.34-0.07,0.54-0.29,0.6-0.62c0.02-0.12,0.01-0.24,0.01-0.36c0-2.31,0-4.62,0-6.93
			c0-0.49,0.19-0.75,0.56-0.76c0.37-0.01,0.57,0.25,0.57,0.74c0,0.6,0,1.19,0,1.79c0,0.09,0.02,0.17,0.03,0.3
			c0.53-0.32,0.8-0.75,0.8-1.31c0.01-1.68,0.01-3.36,0-5.04c0-0.34-0.14-0.61-0.45-0.8c-0.52-0.33-1.02-0.7-1.55-1.02
			c-0.38-0.23-0.59-0.55-0.63-0.97c-0.09-0.91-0.16-1.82-0.23-2.74c-0.04-0.47-0.05-0.95-0.07-1.43c-1.77,0-3.51,0-5.29,0
			c0,0.17,0.01,0.33,0,0.48c-0.09,1.22-0.17,2.44-0.27,3.66c-0.04,0.48-0.25,0.87-0.68,1.15c-0.41,0.27-0.77,0.59-1.17,0.88
			c-0.26,0.19-0.39,0.44-0.39,0.76c0,2.39-0.01,4.79,0.01,7.18C23.06,31.96,23.35,32.46,23.86,32.97z M18.08,14.61
			c0,0.39-0.02,0.66,0,0.91c0.06,0.93-0.27,1.68-1.08,2.14c-0.94,0.53-1.37,1.29-1.35,2.37c0.02,0.93-0.07,1.87-0.11,2.8
			c0.64,0.16,1.06,0.5,1.39,0.98c0.22,0.32,0.46,0.64,0.72,0.93c0.14,0.15,0.35,0.29,0.55,0.33c0.61,0.1,1.23,0.17,1.84,0.21
			c0.61,0.03,1.23,0.01,1.88,0.01c0-0.25,0.02-0.47,0-0.7c-0.09-0.99,0.25-1.8,1.13-2.29c0.92-0.51,1.3-1.26,1.29-2.29
			c0-0.95,0.08-1.89,0.12-2.81c-0.82-0.31-0.91-0.39-1.41-1.03c-0.25-0.33-0.5-0.67-0.77-0.99c-0.08-0.1-0.22-0.21-0.34-0.22
			C20.68,14.83,19.41,14.73,18.08,14.61z"/>
	</g>
</g>
</svg>
