<?xml version="1.0" encoding="utf-8"?>
<!-- Generator: Adobe Illustrator 23.0.5, SVG Export Plug-In . SVG Version: 6.00 Build 0)  -->
<svg version="1.1" id="Layer_1" xmlns="http://www.w3.org/2000/svg" xmlns:xlink="http://www.w3.org/1999/xlink" x="0px" y="0px"
	 viewBox="0 0 40 40" style="enable-background:new 0 0 40 40;" xml:space="preserve">
<g>
	<g>
		<path d="M13.04,34.8c0,0.7,0.01,1.35-0.01,1.99c-0.01,0.26-0.1,0.52-0.15,0.79c-0.21-0.17-0.44-0.32-0.62-0.51
			c-0.57-0.62-1.13-1.27-1.69-1.9c-0.09-0.1-0.17-0.21-0.29-0.36c-0.65,0.74-1.26,1.42-1.87,2.11C8.29,37.07,8.16,37.24,8,37.38
			c-0.09,0.09-0.23,0.13-0.34,0.19c-0.05-0.12-0.14-0.24-0.14-0.37c-0.01-0.64-0.01-1.27-0.01-1.91c0-0.15,0-0.3,0-0.5
			c-0.28,0-0.52-0.01-0.75,0c-0.86,0.06-1.53-0.31-2.07-0.95c-0.76-0.9-1.2-1.97-1.47-3.11c-0.73-3.04-0.62-6.02,0.78-8.87
			c0.22-0.45,0.54-0.86,0.87-1.24c0.45-0.52,1.05-0.77,1.76-0.77c9.8,0.01,19.6,0.01,29.4,0c0.44,0,0.82,0.08,1.01,0.53
			c0.22,0.53-0.14,1.12-0.72,1.19c-0.15,0.02-0.31,0.01-0.47,0.01c-9.63,0-19.26,0.01-28.89-0.01c-0.71,0-1.18,0.28-1.54,0.85
			c-0.55,0.86-0.81,1.83-0.95,2.83c-0.28,1.94-0.23,3.86,0.38,5.74c0.11,0.33,0.25,0.66,0.42,0.97c0.53,0.98,1.06,1.23,2.2,1.06
			c0.09-0.26,0.03-0.42-0.27-0.37c-0.95,0.15-1.39-0.44-1.71-1.18C5,30.39,4.81,29.25,4.76,28.09c-0.07-1.55,0.03-3.08,0.58-4.54
			c0.09-0.25,0.22-0.49,0.34-0.73c0.29-0.56,0.72-0.81,1.39-0.81c9.29,0.02,18.58,0.01,27.87,0.01c0.17,0,0.34,0,0.49,0
			c-1.62,3.53-1.61,7.04-0.02,10.62c-0.13,0-0.29,0-0.45,0c-7.16,0-14.32,0-21.48,0c-0.24,0-0.56-0.07-0.41,0.42
			c0.17,0,0.35,0,0.53,0c7.4,0,14.8,0,22.2,0c0.2,0,0.4,0,0.59,0.03c0.41,0.07,0.7,0.44,0.71,0.84c0.01,0.4-0.28,0.76-0.7,0.84
			c-0.16,0.03-0.34,0.02-0.51,0.02c-7.41,0-14.83,0-22.24,0C13.48,34.8,13.3,34.8,13.04,34.8z M7.92,36.66
			c0.04,0.02,0.07,0.03,0.11,0.05c0.65-0.74,1.31-1.47,1.95-2.22c0.21-0.24,0.37-0.25,0.58,0c0.53,0.62,1.08,1.23,1.62,1.84
			c0.11,0.13,0.23,0.25,0.44,0.47c0-3.16,0-6.19,0-9.27c0.19,0,0.35,0,0.5,0c2.98,0,5.96,0,8.94-0.01c0.15,0,0.29-0.13,0.44-0.2
			c-0.14-0.07-0.29-0.21-0.43-0.21c-0.88-0.02-1.75-0.01-2.63-0.01c-4.25,0-8.5,0-12.75,0c-0.19,0-0.48-0.1-0.48,0.22
			c0,0.06,0.3,0.18,0.46,0.19c0.4,0.03,0.81,0.01,1.26,0.01C7.92,30.61,7.92,33.64,7.92,36.66z M17.77,25.02c-2.5,0-5,0-7.5,0.01
			c-0.19,0-0.56,0.15-0.55,0.19c0.05,0.36,0.36,0.22,0.57,0.22c5,0.01,10,0.01,15,0.01c0.11,0,0.24,0.03,0.34-0.01
			c0.1-0.04,0.17-0.14,0.26-0.21c-0.09-0.07-0.17-0.16-0.28-0.19c-0.1-0.03-0.22-0.01-0.34-0.01
			C22.77,25.02,20.27,25.02,17.77,25.02z M28.14,27.11c-0.94,0-1.89-0.01-2.83,0.01c-0.14,0-0.28,0.14-0.42,0.22
			c0.13,0.07,0.27,0.19,0.4,0.19c1.9,0.01,3.8,0.01,5.7,0c0.13,0,0.25-0.14,0.38-0.21c-0.13-0.07-0.26-0.2-0.4-0.2
			C30.03,27.1,29.09,27.11,28.14,27.11z"/>
		<path d="M0.99,7.98C2.52,7.52,3.94,7.1,5.35,6.69c4.77-1.41,9.54-2.81,14.32-4.21c0.2-0.06,0.45-0.07,0.65-0.01
			c6.14,1.8,12.27,3.6,18.41,5.41c0.07,0.02,0.13,0.05,0.28,0.11c-0.59,0.18-1.09,0.33-1.64,0.5c0,0.73-0.01,1.46,0.01,2.19
			c0,0.1,0.13,0.23,0.23,0.29c0.91,0.57,0.97,1.76,0.1,2.36c-0.22,0.15-0.25,0.28-0.22,0.51c0.28,1.77,0.54,3.54,0.81,5.31
			c0.01,0.05,0,0.11,0,0.24c-0.72-0.62-1.37-1.22-2.06-1.76c-0.39-0.3-0.49-0.59-0.35-1.06c0.24-0.88,0.41-1.79,0.62-2.68
			c0.06-0.23,0.03-0.36-0.21-0.5c-0.98-0.55-0.97-1.82-0.02-2.42c0.11-0.07,0.24-0.21,0.24-0.33c0.02-0.62,0.01-1.24,0.01-1.91
			c-1.01,0.3-1.98,0.58-2.95,0.87c-4.39,1.29-8.79,2.59-13.18,3.87c-0.24,0.07-0.53,0.07-0.77,0C13.55,11.69,7.48,9.9,1.41,8.12
			C1.3,8.08,1.2,8.04,0.99,7.98z"/>
		<path d="M10.8,11.77c2.57,0.75,5.11,1.45,7.61,2.26c1.11,0.36,2.11,0.36,3.22,0c2.38-0.78,4.81-1.44,7.21-2.15
			c0.12-0.04,0.24-0.06,0.38-0.09c0,2.39,0,4.76,0,7.16c-6.14,0-12.27,0-18.43,0C10.8,16.57,10.8,14.19,10.8,11.77z"/>
	</g>
</g>
</svg>
