<?xml version="1.0" encoding="utf-8"?>
<!-- Generator: Adobe Illustrator 23.0.5, SVG Export Plug-In . SVG Version: 6.00 Build 0)  -->
<svg version="1.1" id="Layer_1" xmlns="http://www.w3.org/2000/svg" xmlns:xlink="http://www.w3.org/1999/xlink" x="0px" y="0px"
	 viewBox="0 0 40 40" style="enable-background:new 0 0 40 40;" xml:space="preserve">
<g>
	<g>
		<path d="M4.55,26.84c-0.33,0-0.61,0-0.89,0c-1.29-0.01-2.06-0.77-2.06-2.05c0-2.78,0-5.56,0-8.33c0-1.09,0.64-1.74,1.72-1.74
			c4.52,0,9.05,0,13.57,0c0.9,0,1.54,0.61,1.55,1.45c0.01,0.84-0.65,1.47-1.57,1.47c-2.34,0-4.67,0.01-7.01-0.01
			c-0.38,0-0.5,0.09-0.5,0.49c0.01,5.38,0.01,10.76,0.01,16.14c0,1.33-0.58,1.92-1.91,1.92c-0.43,0-0.86,0.01-1.29,0
			c-0.99-0.03-1.62-0.68-1.62-1.67c0-2.38,0-4.75-0.01-7.13C4.55,27.21,4.55,27.07,4.55,26.84z"/>
		<path d="M22.36,2.28c5.22,0,10.44,0,15.66,0c0.71,0,0.75,0.04,0.75,0.75c0,6.16,0,12.32,0,18.48c0,0.68-0.03,0.72-0.74,0.72
			c-2.46,0-4.91-0.02-7.37-0.02c-2.86,0-5.72,0.01-8.58,0.02c-3.42,0-6.85,0-10.27,0c-0.72,0-0.73-0.01-0.76-0.73
			c-0.04-0.96-0.02-0.98,0.92-0.98c4.2,0,8.4,0,12.6,0c3.93,0,7.86,0,11.8,0c0.63,0,0.7-0.07,0.7-0.69c0-5.05,0-10.09,0-15.14
			c0-0.65-0.06-0.72-0.71-0.72c-9.36,0-18.71,0-28.07,0c-0.59,0-0.67,0.08-0.67,0.67c0,0.75-0.02,0.77-0.76,0.77
			c-0.93,0-0.93,0-0.93-0.93c0-0.56,0.01-1.13,0-1.69C5.92,2.42,6.08,2.27,6.46,2.28c0.38,0.01,0.75,0,1.13,0
			C12.51,2.28,17.44,2.28,22.36,2.28z"/>
		<path d="M25.96,29.62c0.48,0.36,1.01,0.69,1.46,1.1c1.6,1.48,2.42,3.34,2.58,5.51c0.03,0.42-0.1,0.74-0.43,1.02
			c-3.07,2.67-7.77,2.66-10.82-0.02c-0.31-0.28-0.45-0.58-0.41-0.99c0.26-2.84,1.47-5.1,4.01-6.53c0.04-0.03,0.08-0.06,0.16-0.11
			c-1.13-0.74-1.78-1.75-1.78-3.11c0-0.97,0.35-1.81,1.05-2.49c1.42-1.39,3.69-1.32,5.05,0.12C27.98,25.34,28.42,27.99,25.96,29.62z
			"/>
		<path d="M33.93,30.13c1.39,0.72,2.35,1.8,2.87,3.21c0.25,0.68,0.36,1.42,0.47,2.15c0.03,0.21-0.08,0.53-0.24,0.67
			c-1.94,1.69-4.15,2.12-6.6,1.34c-0.03-0.01-0.06-0.04-0.1-0.07c0.56-0.96,0.27-1.95,0.02-2.89c-0.22-0.81-0.59-1.57-0.95-2.33
			c-0.13-0.27-0.14-0.44,0.07-0.63c0.53-0.48,1.07-0.96,1.62-1.46c-0.92-0.59-1.48-1.46-1.41-2.66c0.04-0.76,0.36-1.4,0.92-1.91
			c1.16-1.06,2.95-0.96,4.01,0.22C35.75,27.05,35.51,28.74,33.93,30.13z"/>
		<path d="M17.12,30.06c0.57,0.49,1.13,0.96,1.68,1.44c0.27,0.23,0.3,0.45,0.1,0.79c-0.71,1.18-1.11,2.47-1.16,3.85
			c-0.01,0.42,0.1,0.85,0.16,1.37c-0.16,0.05-0.43,0.15-0.71,0.21c-2.13,0.45-4.04-0.02-5.74-1.38c-0.31-0.25-0.44-0.54-0.41-0.94
			c0.2-2.18,1.13-3.91,3.03-5.08c0.05-0.03,0.11-0.07,0.2-0.14c-0.96-0.59-1.5-1.4-1.51-2.51c-0.01-0.79,0.28-1.47,0.84-2.02
			c1.12-1.11,2.96-1.07,4.04,0.08C18.85,26.99,18.63,28.67,17.12,30.06z"/>
		<path d="M17.24,12.79c0.01-1.34,1.25-2.3,2.55-1.94c0.3,0.09,0.48,0.04,0.7-0.18c0.94-0.96,1.89-1.91,2.84-2.85
			c0.18-0.17,0.25-0.32,0.17-0.59C23.22,6.39,23.53,5.5,24.25,5c0.67-0.48,1.64-0.48,2.31-0.01c0.72,0.51,1.04,1.39,0.77,2.24
			c-0.08,0.26-0.04,0.42,0.15,0.6c0.48,0.45,0.94,0.92,1.39,1.39c0.17,0.17,0.31,0.2,0.56,0.15c0.4-0.07,0.82-0.05,1.22,0
			c0.22,0.03,0.37,0.04,0.53-0.13c0.34-0.36,0.69-0.72,1.05-1.05c0.21-0.19,0.24-0.36,0.15-0.63c-0.31-1.02,0.24-2.09,1.23-2.44
			c1.02-0.37,2.12,0.1,2.54,1.1c0.31,0.76,0.21,1.48-0.34,2.1c-0.56,0.64-1.28,0.83-2.08,0.59c-0.28-0.08-0.44-0.03-0.62,0.16
			c-0.33,0.35-0.67,0.7-1.02,1.03c-0.18,0.17-0.21,0.32-0.14,0.56c0.35,1.18-0.34,2.36-1.51,2.58c-1.19,0.23-2.27-0.57-2.4-1.79
			c-0.03-0.26,0.02-0.54,0.09-0.79c0.06-0.22,0.05-0.36-0.12-0.53c-0.5-0.47-0.98-0.96-1.45-1.45c-0.16-0.16-0.3-0.17-0.53-0.14
			c-0.41,0.06-0.84,0-1.26,0.02c-0.16,0.01-0.38,0.02-0.48,0.12c-1.01,0.98-1.99,1.99-3,2.97c-0.2,0.19-0.15,0.35-0.09,0.57
			c0.31,1.08-0.29,2.18-1.34,2.48c-1.08,0.32-2.19-0.28-2.51-1.36C17.29,13.17,17.28,12.98,17.24,12.79z M35.04,6.98
			c-0.01-0.41-0.35-0.74-0.76-0.73c-0.4,0.01-0.74,0.36-0.73,0.76c0.01,0.41,0.36,0.74,0.76,0.73C34.73,7.72,35.05,7.39,35.04,6.98z
			 M20.01,12.76c-0.01-0.4-0.36-0.73-0.76-0.72c-0.41,0.01-0.74,0.35-0.73,0.76c0.01,0.4,0.35,0.73,0.77,0.72
			C19.69,13.51,20.02,13.17,20.01,12.76z M30.04,12.01c0.42-0.01,0.73-0.32,0.73-0.75c0-0.4-0.34-0.74-0.75-0.74
			c-0.4,0-0.74,0.35-0.74,0.75C29.29,11.68,29.63,12.01,30.04,12.01z M26.14,6.66c0.01-0.42-0.3-0.75-0.72-0.76
			c-0.42-0.01-0.75,0.3-0.76,0.72c-0.01,0.41,0.31,0.75,0.72,0.76C25.79,7.4,26.13,7.07,26.14,6.66z"/>
		<path d="M10.35,10.52c-0.01,1.86-1.53,3.37-3.4,3.37c-1.87,0-3.39-1.52-3.38-3.38c0-1.91,1.49-3.4,3.39-3.4
			C8.86,7.11,10.36,8.62,10.35,10.52z"/>
	</g>
</g>
</svg>
