<?xml version="1.0" encoding="utf-8"?>
<!-- Generator: Adobe Illustrator 23.0.5, SVG Export Plug-In . SVG Version: 6.00 Build 0)  -->
<svg version="1.1" id="Layer_1" xmlns="http://www.w3.org/2000/svg" xmlns:xlink="http://www.w3.org/1999/xlink" x="0px" y="0px"
	 viewBox="0 0 40 40" style="enable-background:new 0 0 40 40;" xml:space="preserve">
<style type="text/css">
	.st0{fill-rule:evenodd;clip-rule:evenodd;}
</style>
<g>
	<g>
		<g>
			<path d="M11.64,8.07c-0.26,0-0.52,0-0.82,0c-0.02-0.13-0.05-0.27-0.04-0.4c0.02-0.31-0.06-0.48-0.42-0.54
				C9.86,7.06,9.77,6.76,9.85,5.93c0.04-0.42,0.27-0.6,0.67-0.6c0.11,0,0.21,0,0.32,0c7.82,0,15.63,0.02,23.45-0.02
				c1.11,0,1.14,0.6,0.95,1.5c-0.03,0.13-0.24,0.31-0.38,0.32c-0.52,0.01-0.48,0.33-0.48,0.69c0,4.34,0,8.67,0,13.01
				c0,1.08-0.28,1.37-1.36,1.37c-6.57,0-13.13,0-19.7,0c-0.19,0-0.38-0.02-0.6-0.03c0-0.31,0-0.56,0-0.89c0.22,0,0.41,0,0.6,0
				c6.42,0,12.85,0,19.27,0c0.86,0,0.86,0,0.86-0.85c0-4.19-0.01-8.39,0.01-12.58c0-0.52-0.15-0.66-0.66-0.66
				C26.1,7.2,19.4,7.19,12.71,7.19C11.79,7.19,11.79,7.2,11.64,8.07z"/>
			<path d="M23.17,14.7c1.52,0,3.01,0,4.58,0c0-1.54,0-3.03,0-4.5c1.58-0.25,3.52,1.58,3.74,3.43c0.3,2.48-1.48,4.64-3.98,4.8
				C25.37,18.57,23.23,16.78,23.17,14.7z"/>
			<path d="M33.37,31.52c-2.82,0-5.62,0-8.4,0c-0.24-1.69,0.67-2.75,2.34-2.76c1.23,0,2.46,0,3.69,0
				C32.71,28.77,33.56,29.73,33.37,31.52z"/>
			<path d="M14.61,31.51c-0.27-1.67,0.61-2.73,2.27-2.74c1.21,0,2.43,0.05,3.63-0.02c1.78-0.1,2.74,1.2,2.49,2.76
				C20.22,31.51,17.44,31.51,14.61,31.51z"/>
			<path d="M21.13,25.47c0,1.3-1.05,2.34-2.36,2.33c-1.29-0.01-2.32-1.03-2.33-2.3c-0.01-1.29,1.05-2.36,2.34-2.36
				C20.08,23.12,21.13,24.17,21.13,25.47z"/>
			<path d="M31.52,25.45c-0.01,1.35-1.04,2.36-2.39,2.34c-1.3-0.02-2.31-1.08-2.29-2.4c0.02-1.23,1.1-2.29,2.32-2.27
				C30.46,23.14,31.53,24.18,31.52,25.45z"/>
			<path d="M26.77,10.15c0,1.19,0,2.34,0,3.54c-1.19,0-2.38,0-3.56,0C23,12.33,24.86,10.09,26.77,10.15z"/>
			<path d="M20.14,10.06c0,0.28,0,0.52,0,0.81c-1.84,0-3.67,0-5.53,0c0-0.27,0-0.52,0-0.81C16.44,10.06,18.26,10.06,20.14,10.06z"/>
			<path d="M14.6,12.76c0-0.29,0-0.53,0-0.81c1.85,0,3.67,0,5.53,0c0,0.27,0,0.52,0,0.81C18.3,12.76,16.48,12.76,14.6,12.76z"/>
		</g>
	</g>
	<path d="M6.7,35.49c-0.06-0.12-0.16-0.24-0.16-0.36c-0.09-1.84-0.16-3.68-0.25-5.52C6.19,27.75,6.07,25.89,5.97,24
		c-0.07-0.02-0.14-0.04-0.23-0.07c0-0.3,0.02-0.6-0.01-0.9c-0.01-0.12-0.08-0.26-0.17-0.34c-1.11-0.97-2.24-1.92-3.34-2.91
		c-0.52-0.47-0.53-0.93-0.1-1.49c1.05-1.36,2.11-2.72,3.33-3.94c0.14-0.14,0.34-0.24,0.53-0.31c0.5-0.17,1.01-0.31,1.54-0.46
		c0.25,0.97,0.49,1.92,0.74,2.87c0.02,0,0.05,0,0.07-0.01c0.01-0.05,0.03-0.1,0.03-0.15c0.04-0.52,0.08-1.04,0.11-1.56
		c0.01-0.18,0.1-0.33,0.26-0.33c0.16,0,0.25,0.13,0.26,0.32c0.04,0.58,0.1,1.15,0.15,1.72c0.03,0.01,0.06,0.01,0.09,0.02
		c0.24-0.95,0.48-1.9,0.73-2.89c0.49,0.15,1,0.29,1.49,0.48c0.21,0.08,0.4,0.26,0.56,0.43c0.76,0.78,1.5,1.56,2.25,2.35
		c0.13,0.13,0.24,0.1,0.37,0.02c0.8-0.54,1.6-1.07,2.4-1.61c0.17-0.12,0.33-0.25,0.51-0.36c0.41-0.25,0.9-0.15,1.18,0.23
		c0.26,0.37,0.2,0.82-0.2,1.13c-1.17,0.93-2.39,1.79-3.69,2.54c-0.38,0.22-0.75,0.2-1.09-0.08c-0.55-0.45-1.09-0.91-1.64-1.37
		c-0.07-0.05-0.13-0.11-0.22-0.19c-0.03,2.27-0.07,4.52-0.1,6.78c-0.11,0.01-0.22,0.03-0.35,0.04c-0.03,0.64-0.07,1.28-0.1,1.92
		c-0.1,2-0.2,4.01-0.29,6.01c-0.05,1.07-0.07,2.14-0.12,3.2c-0.01,0.13-0.1,0.26-0.16,0.39c-0.45,0-0.9,0-1.36,0
		c-0.06-0.12-0.14-0.23-0.16-0.36c-0.03-0.25-0.03-0.5-0.04-0.75c-0.08-3.08-0.15-6.15-0.23-9.23c0-0.09,0.01-0.19-0.03-0.26
		C8.9,24.81,8.81,24.7,8.73,24.7c-0.08,0-0.2,0.11-0.22,0.19c-0.04,0.13-0.03,0.27-0.03,0.41c-0.09,3.26-0.17,6.52-0.26,9.77
		c0,0.14-0.1,0.28-0.16,0.41C7.6,35.49,7.15,35.49,6.7,35.49z M5.73,20.72c0-1.35,0-2.62,0-3.9c-0.02-0.01-0.05-0.02-0.07-0.03
		c-0.55,0.7-1.11,1.39-1.65,2.1c-0.03,0.04-0.01,0.16,0.03,0.2C4.59,19.62,5.15,20.15,5.73,20.72z"/>
	<path d="M8.99,8.79C9,8.8,9.02,8.82,9.03,8.82c1.11,0.33,1.53,1.05,1.28,2.17c-0.13,0.57-0.32,1.12-0.7,1.58
		c-0.55,0.67-1.24,0.67-1.76-0.02c-0.47-0.62-0.71-1.33-0.74-2.1C7.08,9.7,7.53,9.09,8.25,8.87C8.33,8.85,8.4,8.82,8.47,8.79
		C8.64,8.79,8.82,8.79,8.99,8.79z"/>
	<rect x="10.83" y="7.81" width="0.81" height="2.13"/>
</g>
</svg>
