<?xml version="1.0" encoding="utf-8"?>
<!-- Generator: Adobe Illustrator 23.0.5, SVG Export Plug-In . SVG Version: 6.00 Build 0)  -->
<svg version="1.1" id="Layer_1" xmlns="http://www.w3.org/2000/svg" xmlns:xlink="http://www.w3.org/1999/xlink" x="0px" y="0px"
	 viewBox="0 0 40 40" style="enable-background:new 0 0 40 40;" xml:space="preserve">
<style type="text/css">
	.st0{fill-rule:evenodd;clip-rule:evenodd;}
</style>
<g>
	<path class="st0" d="M2.84,4.95h34.31c0.54,0,0.99,0.44,0.99,0.99v22.73c0,0.54-0.44,0.99-0.99,0.99H2.84
		c-0.54,0-0.99-0.44-0.99-0.99V5.94C1.86,5.4,2.3,4.95,2.84,4.95L2.84,4.95L2.84,4.95L2.84,4.95z M25.98,24.96l-4.74-2.87v-1.82
		l4.74-2.87v2.16l-2.88,1.62l2.88,1.62V24.96L25.98,24.96L25.98,24.96z M28.93,24.96l4.74-2.87v-1.82l-4.74-2.87v2.16l2.88,1.62
		l-2.88,1.62V24.96L28.93,24.96L28.93,24.96z M13.27,17.94l1.13,1.13c0.3,0.3,0.3,0.79,0,1.08l-0.91,0.91
		c0.25,0.47,0.44,0.97,0.56,1.51h1.18c0.42,0,0.76,0.35,0.76,0.76v1.6c0,0.42-0.35,0.76-0.76,0.76h-1.29
		c-0.12,0.38-0.26,0.74-0.45,1.08h22.3c0.48,0,0.87-0.39,0.87-0.87V7.37c0-0.48-0.39-0.87-0.87-0.87H4.21l0,0l0,0
		c-0.48,0-0.87,0.39-0.87,0.87v10.22c0.3-0.23,0.74-0.22,1.01,0.06l0.91,0.91c0.47-0.25,0.97-0.44,1.51-0.56v-1.18
		c0-0.42,0.35-0.76,0.76-0.76h1.6c0.42,0,0.76,0.35,0.76,0.76v1.28c0.52,0.16,1.01,0.38,1.46,0.67l0.83-0.84
		C12.48,17.64,12.97,17.64,13.27,17.94L13.27,17.94L13.27,17.94L13.27,17.94z M8.12,20.4c1.95,0,3.53,1.58,3.53,3.53
		c0,1.17-0.57,2.21-1.44,2.85H6.04c-0.88-0.64-1.44-1.68-1.44-2.85C4.59,21.98,6.17,20.4,8.12,20.4L8.12,20.4L8.12,20.4L8.12,20.4z
		 M5.89,12.12h2.27c0.17,0,0.32,0.15,0.32,0.32v0.64c0,0.17-0.15,0.32-0.32,0.32H5.89c-0.17,0-0.32-0.14-0.32-0.32v-0.64
		C5.57,12.26,5.71,12.12,5.89,12.12L5.89,12.12z M9.64,8.83h8.76c0.17,0,0.32,0.14,0.32,0.32v0.64c0,0.17-0.14,0.32-0.32,0.32H9.64
		c-0.17,0-0.32-0.14-0.32-0.32V9.14C9.32,8.97,9.46,8.83,9.64,8.83L9.64,8.83z M5.89,8.83h2.27c0.17,0,0.32,0.14,0.32,0.32v0.64
		c0,0.17-0.14,0.32-0.32,0.32H5.89c-0.17,0-0.32-0.14-0.32-0.32V9.14C5.57,8.97,5.71,8.83,5.89,8.83L5.89,8.83z M13.18,12.12h14.54
		c0.17,0,0.32,0.15,0.32,0.32v0.64c0,0.17-0.15,0.32-0.32,0.32H13.18c-0.17,0-0.32-0.14-0.32-0.32v-0.64
		C12.87,12.26,13.01,12.12,13.18,12.12L13.18,12.12z M9.6,12.12h2.27c0.17,0,0.32,0.15,0.32,0.32v0.64c0,0.17-0.15,0.32-0.32,0.32
		H9.6c-0.17,0-0.32-0.14-0.32-0.32v-0.64C9.28,12.26,9.42,12.12,9.6,12.12L9.6,12.12z M15.53,31.02h8.95
		c0.02,1.55,0.66,2.93,2.39,4.03H13.14C14.52,34.04,15.53,32.83,15.53,31.02L15.53,31.02L15.53,31.02L15.53,31.02z"/>
</g>
</svg>
