<?xml version="1.0" encoding="utf-8"?>
<!-- Generator: Adobe Illustrator 23.0.5, SVG Export Plug-In . SVG Version: 6.00 Build 0)  -->
<svg version="1.1" id="Layer_1" xmlns="http://www.w3.org/2000/svg" xmlns:xlink="http://www.w3.org/1999/xlink" x="0px" y="0px"
	 viewBox="0 0 40 40" style="enable-background:new 0 0 40 40;" xml:space="preserve">
<style type="text/css">
	.st0{fill-rule:evenodd;clip-rule:evenodd;}
</style>
<g>
	<g>
		<path d="M31.12,21.82c0.59,0,1.13,0,1.73,0c0,0.2,0,0.35,0,0.5c0,3.18,0,6.36,0,9.54c0,2.38-1.71,4.08-4.1,4.08
			c-1.5,0-3.01,0.02-4.51,0c-1.62-0.02-2.81-0.78-3.55-2.22c-0.16-0.31-0.29-0.36-0.62-0.28c-8.35,2.03-16.68-3.55-18.01-12.05
			C0.81,13.41,5.87,5.98,13.66,4.36c8.26-1.72,16.39,4.02,17.55,12.38c0.22,1.59,0.21,3.17-0.05,4.75
			C31.15,21.57,31.14,21.65,31.12,21.82z M20.75,22.31c-0.01,0.16-0.02,0.3-0.02,0.44c0,3.03-0.01,6.07,0,9.1
			c0,2.09,1.51,3.59,3.61,3.61c1.45,0.01,2.89,0.01,4.34,0c2.24-0.01,3.7-1.47,3.71-3.72c0-2.98,0-5.96,0-8.93
			c0-0.17-0.01-0.33-0.02-0.5C28.46,22.31,24.62,22.31,20.75,22.31z M20.2,30.54c-5.75,1.71-11.06-0.9-13.65-4.98
			c-2.84-4.47-2.52-10.24,0.81-14.33c3.21-3.95,8.67-5.43,13.44-3.63c2.43,0.92,4.39,2.46,5.81,4.64c1.91,2.93,2.42,6.13,1.71,9.53
			c0.83,0.17,0.92,0.13,0.99-0.64c0.09-0.9,0.19-1.8,0.16-2.7c-0.23-7.95-7.69-13.83-15.46-12.2c-6.82,1.43-11.23,8-10.06,15
			c1.22,7.3,8.42,12.09,15.61,10.39c0.76-0.18,0.76-0.18,0.69-0.97C20.24,30.62,20.22,30.59,20.2,30.54z M18.31,17.64
			c0.15,0.5,0.29,0.94,0.43,1.39c0.04-0.01,0.1-0.01,0.15-0.02c2.21-0.69,4.42-1.39,6.63-2.09c0.48-0.15,0.69-0.53,0.56-0.95
			c-0.14-0.45-0.51-0.62-1.04-0.46c-0.85,0.26-1.69,0.53-2.54,0.8C21.11,16.75,19.71,17.2,18.31,17.64z M15.8,16.9
			c-1.07-0.97-2.19-2-3.35-3c-0.19-0.16-0.58-0.22-0.83-0.16c-0.78,0.18-0.98,1.11-0.37,1.68c1.05,0.97,2.12,1.92,3.18,2.88
			c0.05,0.04,0.11,0.07,0.07,0.04C14.94,17.85,15.35,17.39,15.8,16.9z M15.39,18.94c-0.01,0.68,0.53,1.24,1.2,1.25
			c0.68,0.01,1.24-0.53,1.25-1.21c0.01-0.67-0.54-1.25-1.21-1.26C15.97,17.71,15.4,18.26,15.39,18.94z M16.19,9.36
			c0,0.38,0,0.77,0,1.15c0,0.29,0.1,0.52,0.43,0.51c0.3-0.01,0.4-0.22,0.4-0.5c0-0.77,0-1.54,0-2.31c0-0.28-0.1-0.49-0.41-0.49
			c-0.31-0.01-0.42,0.2-0.42,0.48C16.19,8.59,16.19,8.98,16.19,9.36z M26.08,19.37c0.4,0,0.8,0,1.2,0c0.27,0,0.49-0.14,0.44-0.4
			c-0.03-0.17-0.27-0.41-0.42-0.42c-0.8-0.04-1.6-0.04-2.4,0c-0.16,0.01-0.41,0.24-0.44,0.4c-0.06,0.28,0.18,0.42,0.46,0.42
			C25.31,19.38,25.69,19.37,26.08,19.37z M16.19,28.51c0,0.4,0,0.8,0,1.2c0,0.28,0.12,0.49,0.42,0.48c0.3-0.01,0.41-0.22,0.41-0.5
			c0-0.77,0-1.54,0-2.31c0-0.28-0.12-0.5-0.41-0.5c-0.32-0.01-0.43,0.23-0.43,0.52C16.19,27.76,16.19,28.14,16.19,28.51z M7.3,13.08
			c-0.12,0.11-0.34,0.23-0.35,0.35c-0.01,0.17,0.1,0.43,0.24,0.52c0.62,0.4,1.28,0.75,1.92,1.14c0.29,0.17,0.56,0.22,0.73-0.11
			c0.17-0.31-0.06-0.5-0.32-0.64c-0.62-0.36-1.23-0.72-1.85-1.08C7.58,13.19,7.47,13.15,7.3,13.08z M11.36,9.17
			c-0.43-0.01-0.63,0.34-0.45,0.68c0.39,0.7,0.8,1.39,1.2,2.08c0.13,0.23,0.34,0.32,0.58,0.18c0.23-0.14,0.26-0.36,0.13-0.6
			c-0.38-0.69-0.76-1.38-1.16-2.05C11.59,9.31,11.43,9.23,11.36,9.17z M22.43,9.58c-0.1-0.12-0.19-0.35-0.31-0.36
			c-0.17-0.02-0.44,0.08-0.52,0.21c-0.4,0.64-0.76,1.31-1.14,1.97c-0.15,0.26-0.23,0.53,0.08,0.7c0.31,0.18,0.5-0.02,0.65-0.28
			c0.35-0.62,0.71-1.24,1.07-1.86C22.31,9.86,22.35,9.75,22.43,9.58z M7.14,19.37c0.39,0,0.77,0,1.16,0c0.28,0,0.52-0.13,0.47-0.42
			c-0.03-0.16-0.27-0.4-0.43-0.41c-0.8-0.04-1.6-0.04-2.4,0c-0.15,0.01-0.38,0.25-0.42,0.42c-0.06,0.26,0.16,0.4,0.43,0.41
			C6.34,19.38,6.74,19.37,7.14,19.37z M26.31,13.65c0.01-0.44-0.34-0.64-0.68-0.45c-0.69,0.38-1.36,0.79-2.04,1.19
			c-0.25,0.15-0.33,0.38-0.17,0.62c0.14,0.22,0.37,0.25,0.6,0.11c0.67-0.39,1.34-0.77,2-1.17C26.16,13.88,26.25,13.72,26.31,13.65z
			 M9.89,23.2c-0.01-0.41-0.33-0.6-0.62-0.44c-0.71,0.39-1.41,0.8-2.11,1.22c-0.22,0.13-0.33,0.33-0.19,0.58
			c0.15,0.26,0.38,0.28,0.62,0.14c0.68-0.39,1.36-0.78,2.03-1.19C9.76,23.43,9.84,23.27,9.89,23.2z M12.94,26.12
			c-0.1-0.1-0.2-0.32-0.31-0.32c-0.18,0-0.43,0.09-0.52,0.22c-0.41,0.64-0.76,1.3-1.15,1.96c-0.16,0.27-0.21,0.53,0.09,0.7
			c0.3,0.17,0.51-0.02,0.65-0.29c0.36-0.65,0.73-1.29,1.09-1.94C12.84,26.38,12.87,26.28,12.94,26.12z"/>
		<path d="M33.34,25.59c0-0.42,0.02-0.82-0.01-1.22c-0.02-0.34,0.1-0.44,0.43-0.45c1.92-0.02,3.72,1.37,4.22,3.29
			c0.72,2.76-1.35,5.48-4.2,5.51c-0.15,0-0.3-0.02-0.44-0.04c0-0.57,0-1.09,0-1.66c1.02,0.05,1.87-0.23,2.51-1.01
			c0.43-0.53,0.63-1.15,0.6-1.83C36.39,26.68,35.34,25.78,33.34,25.59z"/>
	</g>
</g>
</svg>
