<?xml version="1.0" encoding="utf-8"?>
<!-- Generator: Adobe Illustrator 23.0.5, SVG Export Plug-In . SVG Version: 6.00 Build 0)  -->
<svg version="1.1" id="Layer_1" xmlns="http://www.w3.org/2000/svg" xmlns:xlink="http://www.w3.org/1999/xlink" x="0px" y="0px"
	 viewBox="0 0 40 40" style="enable-background:new 0 0 40 40;" xml:space="preserve">
<style type="text/css">
	.st0{fill-rule:evenodd;clip-rule:evenodd;}
</style>
<g>
	<g>
		<path d="M27.59,26.11c0.11,0.05,0.22,0.07,0.26,0.14c0.11,0.18,0.28,0.41,0.25,0.58c-0.03,0.17-0.27,0.38-0.45,0.43
			c-0.23,0.06-0.32,0.12-0.34,0.36c-0.02,0.42-0.08,0.84-0.12,1.26c-0.03,0.37-0.24,0.56-0.6,0.56c-1.97,0.01-3.93,0.01-5.9,0
			c-0.4,0-0.59-0.22-0.62-0.63c-0.02-0.38-0.05-0.76-0.07-1.15c-0.01-0.23-0.08-0.35-0.35-0.4c-0.17-0.03-0.41-0.23-0.44-0.39
			c-0.03-0.18,0.07-0.47,0.22-0.58c0.21-0.16,0.19-0.28,0.13-0.48c-0.31-1.04-0.8-1.99-1.41-2.88c-0.63-0.93-1.3-1.84-1.92-2.77
			c-3.16-4.74-1.33-11.37,3.78-13.7C24.7,4.31,30.14,6.63,32,11.57c1.09,2.89,0.73,5.61-0.96,8.18c-0.73,1.11-1.5,2.2-2.16,3.35
			c-0.47,0.82-0.81,1.73-1.19,2.6C27.64,25.83,27.62,25.97,27.59,26.11z M26.37,26.16c0.03-0.08,0.06-0.14,0.08-0.2
			c0.3-1.34,0.89-2.55,1.62-3.7c0.67-1.06,1.36-2.1,2.05-3.15c1.5-2.28,1.79-4.68,0.8-7.24c-1.54-3.99-5.82-6.05-9.75-4.69
			c-4.74,1.64-6.84,7.53-4.24,11.93c0.45,0.77,1.01,1.48,1.52,2.21c1,1.42,1.9,2.88,2.32,4.59c0.03,0.1,0.23,0.23,0.35,0.23
			c0.64,0.02,1.28,0.01,1.92,0.01C24.15,26.16,25.26,26.16,26.37,26.16z M21.17,28.28c1.68,0,3.29,0,4.92,0
			c0.03-0.34,0.06-0.65,0.1-0.98c-1.71,0-3.38,0-5.09,0C21.12,27.63,21.15,27.94,21.17,28.28z"/>
		<path d="M10.51,26.64c0-0.46,0-0.92,0-1.38c0-0.61-0.26-0.88-0.88-0.92c-1.14-0.07-2-0.82-2.21-1.94
			c-0.11-0.56,0.05-1.06,0.32-1.54c0.7-1.21,1.39-2.42,2.1-3.61c0.26-0.43,0.35-0.89,0.38-1.38c0.35-4.94,2.37-8.97,6.53-11.78
			c2.03-1.37,4.31-2.03,6.76-2.07c0.41-0.01,0.64,0.16,0.68,0.47c0.05,0.4-0.18,0.66-0.64,0.66c-1.13,0.01-2.25,0.17-3.32,0.53
			c-3.95,1.32-6.5,4.07-7.99,7.87c-0.57,1.45-0.85,2.97-0.9,4.53c-0.02,0.61-0.18,1.18-0.5,1.71c-0.7,1.17-1.38,2.36-2.06,3.54
			c-0.56,0.97-0.1,1.82,1.03,1.9c1.11,0.08,1.82,0.85,1.82,1.97c0,0.83,0,1.66,0,2.49c0.02,2.12,1.69,3.8,3.81,3.88
			c0.94,0.03,1.9,0.05,2.81,0.24c1.3,0.28,2.33,0.99,2.73,2.35c0.1,0.35,0.12,0.73,0.14,1.09c0.02,0.32-0.17,0.51-0.47,0.55
			c-0.33,0.04-0.54-0.14-0.61-0.46c-0.05-0.22-0.03-0.46-0.08-0.68c-0.15-0.75-0.6-1.3-1.31-1.54c-0.64-0.22-1.33-0.34-2.01-0.42
			c-0.76-0.1-1.55-0.01-2.28-0.17c-2.27-0.49-3.83-2.49-3.85-4.82C10.51,27.35,10.51,26.99,10.51,26.64z"/>
		<path d="M23.65,31.5c-0.66,0-1.33,0-1.99,0c-0.41,0-0.69-0.23-0.69-0.56c0-0.33,0.27-0.56,0.68-0.56c1.33,0,2.65,0,3.98,0
			c0.43,0,0.68,0.22,0.68,0.56c0,0.34-0.25,0.56-0.67,0.56C24.97,31.5,24.31,31.49,23.65,31.5z"/>
		<path d="M20.61,37.98c-0.31,0-0.55-0.25-0.54-0.57c0.01-0.31,0.26-0.56,0.56-0.55c0.3,0.01,0.56,0.28,0.55,0.57
			C21.18,37.73,20.91,37.99,20.61,37.98z"/>
		<path d="M30.15,14.92c0,0.18,0.01,0.36,0,0.54c-0.03,0.51-0.32,0.92-0.8,1.05c-0.25,0.06-0.34,0.2-0.43,0.41
			c-0.16,0.38-0.28,0.71-0.05,1.13c0.2,0.37,0.04,0.78-0.25,1.09c-0.24,0.26-0.49,0.52-0.76,0.76c-0.39,0.36-0.86,0.39-1.35,0.17
			c-0.14-0.06-0.33-0.06-0.48-0.02c-0.42,0.12-0.76,0.29-0.9,0.79c-0.11,0.38-0.5,0.56-0.92,0.58c-0.36,0.01-0.72,0.01-1.07,0
			c-0.53-0.01-0.94-0.31-1.07-0.82c-0.06-0.22-0.15-0.33-0.35-0.38c-0.16-0.04-0.3-0.15-0.46-0.18c-0.14-0.03-0.32-0.04-0.45,0.02
			c-0.52,0.25-0.99,0.2-1.41-0.2c-0.24-0.23-0.48-0.46-0.7-0.71c-0.39-0.42-0.45-0.89-0.16-1.37c0.11-0.18,0.11-0.31,0.01-0.48
			c-0.08-0.13-0.14-0.28-0.18-0.42c-0.05-0.23-0.19-0.32-0.41-0.38c-0.49-0.13-0.78-0.54-0.79-1.05c-0.01-0.36-0.01-0.72,0-1.07
			c0.01-0.5,0.29-0.92,0.76-1.03c0.29-0.07,0.36-0.24,0.47-0.47c0.18-0.37,0.27-0.68,0.04-1.08c-0.21-0.35-0.06-0.73,0.19-1.03
			c0.26-0.31,0.56-0.6,0.86-0.87c0.36-0.31,0.8-0.37,1.22-0.15c0.25,0.13,0.42,0.11,0.67,0.01c0.37-0.15,0.67-0.29,0.8-0.74
			c0.12-0.42,0.54-0.6,0.98-0.62c0.33-0.01,0.66-0.01,1,0c0.58,0.02,0.93,0.32,1.13,0.87c0.05,0.13,0.18,0.26,0.31,0.33
			c0.38,0.19,0.74,0.37,1.2,0.09c0.35-0.21,0.76-0.06,1.06,0.22c0.28,0.26,0.56,0.52,0.81,0.81c0.34,0.38,0.39,0.83,0.15,1.28
			c-0.11,0.2-0.11,0.35-0.03,0.56c0.16,0.39,0.3,0.73,0.79,0.87c0.4,0.12,0.57,0.52,0.6,0.95C30.16,14.56,30.15,14.74,30.15,14.92z
			 M23.16,9.56c-0.01,0.13-0.02,0.24-0.03,0.36c-0.02,0.3-0.17,0.48-0.46,0.59c-0.49,0.18-0.97,0.38-1.44,0.6
			c-0.28,0.13-0.51,0.12-0.74-0.09c-0.08-0.08-0.17-0.15-0.27-0.25c-0.24,0.24-0.47,0.47-0.7,0.7c0.52,0.63,0.51,0.63,0.16,1.33
			c-0.13,0.25-0.27,0.51-0.32,0.78c-0.1,0.59-0.38,0.9-1,0.84c-0.02,0-0.04,0.03-0.05,0.05c0,0.32,0,0.63,0,0.94
			c0.8,0.1,0.79,0.1,1.05,0.87c0.12,0.35,0.28,0.68,0.46,1.01c0.18,0.32,0.17,0.6-0.1,0.86c-0.07,0.07-0.12,0.15-0.15,0.19
			c0.23,0.26,0.44,0.5,0.67,0.77c0.4-0.57,0.82-0.5,1.32-0.19c0.32,0.2,0.7,0.31,1.07,0.41c0.34,0.1,0.52,0.29,0.53,0.65
			c0,0.1,0.02,0.2,0.03,0.3c0.34,0,0.65,0,0.99,0c0.01-0.08,0.02-0.14,0.02-0.2c0.03-0.55,0.1-0.6,0.61-0.77
			c0.43-0.15,0.85-0.35,1.26-0.54c0.25-0.12,0.48-0.16,0.71,0.03c0.11,0.09,0.21,0.18,0.32,0.29c0.24-0.25,0.46-0.48,0.7-0.73
			c-0.26-0.28-0.54-0.53-0.32-0.99c0.24-0.48,0.39-1,0.63-1.47c0.09-0.18,0.33-0.31,0.52-0.43c0.1-0.06,0.24-0.02,0.38-0.03
			c0-0.34,0-0.66,0-1c-0.12-0.01-0.2-0.03-0.29-0.02c-0.36,0-0.54-0.17-0.66-0.52c-0.15-0.46-0.35-0.9-0.56-1.34
			c-0.14-0.3-0.16-0.56,0.07-0.81c0.08-0.08,0.15-0.17,0.2-0.23c-0.23-0.26-0.45-0.5-0.68-0.76c-0.32,0.36-0.61,0.58-1.08,0.31
			c-0.42-0.23-0.88-0.39-1.34-0.55c-0.3-0.11-0.48-0.27-0.48-0.61c0-0.11-0.02-0.22-0.03-0.34C23.81,9.56,23.5,9.56,23.16,9.56z"/>
		<path d="M20.56,14.94c-0.01-1.69,1.35-3.09,3.03-3.11c1.72-0.02,3.11,1.34,3.13,3.05c0.01,1.73-1.33,3.1-3.05,3.13
			C21.98,18.03,20.58,16.65,20.56,14.94z M21.7,14.94c0.01,1.08,0.87,1.95,1.95,1.95c1.09,0,1.97-0.89,1.96-1.98
			c-0.01-1.09-0.89-1.96-1.99-1.94C22.53,12.98,21.69,13.85,21.7,14.94z"/>
	</g>
</g>
</svg>
