<?xml version="1.0" encoding="utf-8"?>
<!-- Generator: Adobe Illustrator 23.0.5, SVG Export Plug-In . SVG Version: 6.00 Build 0)  -->
<svg version="1.1" id="Layer_1" xmlns="http://www.w3.org/2000/svg" xmlns:xlink="http://www.w3.org/1999/xlink" x="0px" y="0px"
	 viewBox="0 0 40 40" style="enable-background:new 0 0 40 40;" xml:space="preserve">
<style type="text/css">
	.st0{fill-rule:evenodd;clip-rule:evenodd;}
</style>
<g>
	<g>
		<path d="M9.15,38.06c-0.41-1.63-0.8-3.25-1.22-4.87c-0.7-2.66-1.41-5.31-2.12-7.96c-0.05-0.2-0.08-0.41-0.14-0.69
			c0.59-0.16,1.15-0.31,1.71-0.47c1.65-0.45,3.29-0.89,4.94-1.35c0.58-0.16,0.96-0.1,1.14,0.58c1.03,3.92,2.07,7.83,3.13,11.75
			c0.15,0.57,0.01,0.84-0.55,1c-2.13,0.61-4.25,1.24-6.37,1.86C9.54,37.93,9.43,38,9.31,38.06C9.26,38.06,9.21,38.06,9.15,38.06z
			 M13.83,32.68c0-0.65-0.54-1.19-1.17-1.18c-0.58,0.01-1.12,0.56-1.12,1.15c0,0.65,0.54,1.18,1.17,1.17
			C13.32,33.81,13.83,33.28,13.83,32.68z"/>
		<path d="M22.48,1.94c1.5,0.21,3,0.44,4.5,0.64c1.8,0.24,3.6,0.47,5.41,0.68c0.64,0.07,0.98,0.3,0.85,1.02
			c-0.66,3.84-1.29,7.68-1.95,11.57c-0.36,0-0.69,0-1.08,0c0.4-2.48,0.79-4.93,1.21-7.37c0.1-0.58,0.14-1-0.56-1.33
			c-1.03-0.48-1.39-1.39-1.52-3.18c-1.26-0.16-2.54-0.33-3.87-0.5c-0.26,1.56-0.97,2.7-2.45,2.99c0,1.98-0.03,3.9,0.01,5.81
			c0.03,1.63,0.09,3.26,0.2,4.89c0.06,0.79-0.5,0.65-1.02,0.81c-0.06-1.17-0.13-2.3-0.17-3.43c-0.15-3.87-0.3-7.74-0.43-11.62
			c-0.01-0.32,0.15-0.65,0.23-0.98C22.05,1.94,22.26,1.94,22.48,1.94z"/>
		<path d="M19.6,18.07c0.8,1.59,1.09,1.78,2.85,1.36c2.33-0.56,4.63-1.26,6.96-1.87c1.42-0.38,2.07-0.21,2.61,0.69
			c0.21,0.35,0.24,0.81,0.4,1.19c0.2,0.49,0.35,1.08,0.71,1.42c0.73,0.67,0.97,1.39,0.6,2.29c-0.29,0.71-0.24,1.34,0.22,1.96
			c0.57,0.78,0.46,1.51-0.12,2.27c-0.22,0.29-0.33,0.79-0.26,1.15c0.3,1.43-0.02,2.29-1.44,2.77c-1.97,0.67-3.99,1.17-5.98,1.77
			c-1.8,0.54-3.6,0.66-5.46,0.34c-0.82-0.14-1.68-0.02-2.63-0.02c-0.5-1.84-1.01-3.76-1.53-5.69c-0.35-1.29-0.73-2.57-1.02-3.87
			c-0.1-0.45-0.06-0.99,0.08-1.44c0.21-0.68,0.54-1.34,0.87-1.98C17.12,19.12,18.23,18.42,19.6,18.07z"/>
		<path d="M20.2,17.08c-0.14-0.28-0.3-0.55-0.41-0.84c-1.13-3.04-2.26-6.09-3.38-9.13c-0.17-0.45-0.33-0.9-0.52-1.34
			c-0.2-0.46-0.03-0.73,0.42-0.83c1.24-0.28,2.49-0.53,3.75-0.79c0.27,0.75,0.18,1.22-0.75,1.23c0.4,1.3,0.43,2.46-0.95,3.11
			c0.63,2.81,2.47,5.26,2.2,8.28C20.44,16.87,20.32,16.98,20.2,17.08z"/>
		<path d="M26.87,11.58c1.45-0.01,2.64,1.02,2.66,2.32c0.02,1.34-1.17,2.41-2.66,2.4c-1.44,0-2.61-1.06-2.62-2.37
			C24.23,12.66,25.42,11.6,26.87,11.58z"/>
	</g>
</g>
</svg>
