<?xml version="1.0" encoding="utf-8"?>
<!-- Generator: Adobe Illustrator 23.0.5, SVG Export Plug-In . SVG Version: 6.00 Build 0)  -->
<svg version="1.1" id="Layer_1" xmlns="http://www.w3.org/2000/svg" xmlns:xlink="http://www.w3.org/1999/xlink" x="0px" y="0px"
	 viewBox="0 0 40 40" style="enable-background:new 0 0 40 40;" xml:space="preserve">
<style type="text/css">
	.st0{fill-rule:evenodd;clip-rule:evenodd;}
</style>
<g>
	<g>
		<path d="M32.05,25.11c-0.86,0.21-0.92-0.27-0.96-0.8c-0.19-2.34-0.4-4.68-0.6-7.02c-0.02-0.21-0.04-0.43-0.07-0.66
			c-0.11,0.02-0.21,0.01-0.24,0.05c-0.92,1.28-2.34,1.59-3.75,1.93c-0.97,0.23-1.93,0.53-2.9,0.78c-0.88,0.23-1.62-0.13-1.83-0.88
			c-0.22-0.76,0.21-1.46,1.09-1.71c1.27-0.36,2.56-0.64,3.82-1.04c0.53-0.17,1.07-0.47,1.48-0.85c0.98-0.89,1.89-1.85,2.82-2.79
			c0.84-0.85,1.83-1.14,2.95-0.71c1.09,0.41,1.65,1.27,1.75,2.41c0.3,3.39,0.59,6.78,0.89,10.17c0.04,0.43,0.05,0.76-0.54,0.81
			c-0.15,0.01-0.38,0.44-0.38,0.68c-0.03,2.69-0.01,5.39-0.02,8.08c0,1.21-0.49,1.69-1.7,1.69c-1.35,0.01-1.8-0.44-1.81-1.8
			c0-2.45,0-4.9,0-7.35C32.05,25.82,32.05,25.53,32.05,25.11z"/>
		<path d="M3.5,25.54c0-2.57-0.03-4.99,0.01-7.41c0.02-0.96,0.78-1.71,1.77-1.73c2.3-0.05,4.6-0.01,6.9-0.03
			c0.41,0,0.48,0.21,0.48,0.55c-0.01,0.73-0.01,1.47,0,2.2c0,0.23,0.03,0.46,0.06,0.85c1.06-0.64,2.05-1.03,2.86,0.09
			c0.41,0.57,0.41,1.23,0,1.79c-0.81,1.1-1.8,0.78-2.89,0.04c0,1.31,0,2.41,0,3.63c-1,0-1.9,0-2.79,0c-0.82,0.01-0.86,0.07-0.45,0.8
			c0.4,0.72,0.26,1.56-0.35,2.06c-0.6,0.5-1.42,0.51-2.03,0.03c-0.62-0.48-0.79-1.31-0.41-2.05c0.43-0.82,0.42-0.84-0.54-0.84
			C5.28,25.53,4.43,25.54,3.5,25.54z"/>
		<path d="M3.57,26.11c0.83,0,1.63,0,2.51,0c-0.25,1-0.29,1.98,0.57,2.63c0.42,0.32,1.02,0.55,1.54,0.54
			c1.47-0.01,2.13-1.14,1.91-3.15c0.82,0,1.64,0,2.57,0c0,0.59,0,1.17,0,1.74c0,0.55,0,1.1,0,1.83c1.13-0.68,2.15-1.08,2.95,0.11
			c0.39,0.58,0.37,1.24-0.06,1.79c-0.82,1.04-1.78,0.74-2.85-0.01c0,1.3,0,2.41,0,3.58c-0.33,0.03-0.56,0.07-0.8,0.07
			c-2.08,0-4.16,0.01-6.24,0c-1.45-0.01-2.18-0.73-2.18-2.16c0-2.23,0-4.46,0.01-6.68C3.5,26.33,3.53,26.26,3.57,26.11z"/>
		<path d="M26.58,15.2c-1.39,0.38-2.77,0.74-4.13,1.14c-0.85,0.25-1.35,0.97-1.34,1.81c0.01,0.84,0.55,1.58,1.38,1.78
			c0.36,0.08,0.78,0.05,1.15-0.03c1.07-0.25,2.12-0.55,3.31-0.86c0.08,0.76,0.17,1.46,0.19,2.15c0,0.11-0.26,0.32-0.43,0.34
			c-0.73,0.1-1.46,0.14-2.19,0.21c-0.26,0.03-0.52,0.09-0.91,0.16c0.18,0.27,0.28,0.44,0.4,0.6c0.52,0.73,0.48,1.55-0.1,2.14
			c-0.55,0.56-1.36,0.65-2.02,0.23c-0.69-0.44-0.92-1.27-0.58-2.06c0.08-0.19,0.17-0.39,0.34-0.76c-0.61,0.03-1.08,0.04-1.54,0.09
			c-2.03,0.22-2.03,0.22-2.24-1.8c-0.01-0.12-0.02-0.24-0.03-0.37c-0.08-1.13-0.08-1.13-1.09-0.64c-0.66,0.32-1.46,0.15-1.93-0.41
			c-0.47-0.56-0.5-1.38-0.08-1.98c0.42-0.59,1.2-0.82,1.9-0.55c0.22,0.09,0.43,0.21,0.78,0.38c0.03-0.33,0.09-0.58,0.07-0.82
			c-0.05-0.73-0.11-1.46-0.2-2.19c-0.05-0.39,0.05-0.59,0.48-0.62c2.27-0.19,4.53-0.43,6.8-0.58C25.9,12.47,26.62,13.46,26.58,15.2z
			"/>
		<path d="M18.72,26.08c1.14,0,2.07,0.03,2.99-0.01c0.52-0.02,0.67,0.16,0.67,0.67c-0.02,2.13,0,4.26-0.01,6.39
			c-0.01,1.35-0.75,2.11-2.09,2.11c-2.13,0.01-4.26,0-6.39,0c-0.19,0-0.38-0.03-0.62-0.04c0-0.85,0-1.67,0-2.48
			c2.12,0.13,3.16-0.56,3.14-2.08c-0.01-1.5-1.1-2.21-3.14-2.01c0-0.82,0-1.64,0-2.55c0.59,0,1.14,0,1.7,0c0.55,0,1.11,0,1.83,0
			c-0.19-0.36-0.29-0.57-0.39-0.77c-0.4-0.73-0.27-1.56,0.33-2.07c0.6-0.5,1.5-0.5,2.09,0.01c0.6,0.52,0.72,1.33,0.32,2.07
			C19.04,25.51,18.93,25.69,18.72,26.08z"/>
		<path d="M28.25,7.52c0.02-1.6,1.14-2.79,2.61-2.77c1.54,0.03,2.81,1.47,2.81,3.18c0,1.6-1.14,2.84-2.57,2.82
			C29.52,10.73,28.23,9.26,28.25,7.52z"/>
	</g>
</g>
</svg>
